<svg width="85" height="85" viewBox="0 0 85 85" fill="none" xmlns="http://www.w3.org/2000/svg">
<circle cx="42.627" cy="42.7141" r="42" fill="#F9F9F9"/>
<path fill-rule="evenodd" clip-rule="evenodd" d="M18.1069 76.0744C20.4489 69.0151 24.099 60.6018 25.9952 58.4667C28.6084 55.4947 32.7271 50.8562 39.8568 49.2452C41.277 48.9119 46.3615 47.8286 52.014 49.8007C59.6632 52.5 66.9135 65.1367 70.1239 75.3029C62.8961 81.1867 53.6735 84.7141 43.627 84.7141C34.0277 84.7141 25.1805 81.4937 18.1069 76.0744Z" fill="#04293E"/>
<path d="M21.1167 43.0365C18.342 38.897 16.8325 33.7212 17.2838 28.6032L17.2856 28.5834C17.8985 22.003 21.7676 17.7261 24.2698 14.9603L24.2698 14.9602L24.5013 14.7041L24.5348 14.6667C26.9627 11.9495 31.4553 6.92182 39.2709 5.17851C40.8154 4.82261 46.3502 3.65902 52.5769 5.79656L52.5904 5.80118C64.1054 9.7995 69.6296 22.0146 69.5704 31.6033L69.5703 31.6245L69.5691 31.7275C69.5426 34.1453 69.4678 40.9831 64.2906 46.7716C60.2813 51.274 54.2089 53.2122 49.2613 53.9425L49.2539 53.9436C39.1871 55.4103 27.4165 52.4462 21.1167 43.0365Z" fill="#F9F9F9"/>
<path d="M38.7949 9.12092C32.2852 10.5682 28.5247 14.7355 26.1386 17.4055C23.5711 20.2502 20.433 23.6688 19.9402 28.959C19.5771 33.0763 20.7961 37.3433 23.1043 40.7869C28.2653 48.4976 38.2243 51.2674 47.3015 49.9449C51.866 49.2711 56.8196 47.5493 59.9058 44.0808C64.0813 39.4145 64.1332 33.8499 64.1591 31.5791C64.211 23.1698 59.3093 12.8889 49.895 9.61999C44.7339 7.84829 40.0916 8.82148 38.7949 9.12092Z" fill="#00DCE8"/>
</svg>
