<svg width="46" height="46" viewBox="0 0 46 46" fill="none" xmlns="http://www.w3.org/2000/svg">
<path d="M19.7642 1.06696L19.7642 1.06698L19.7683 1.06599C21.0864 0.749479 25.7915 -0.274254 31.0133 1.58951C40.5285 5.0258 45.5527 15.8868 45.4996 24.8367L45.4995 24.8403C45.4726 27.2927 45.4085 33.13 41.2023 38.0181L41.2014 38.0192C38.1082 41.6343 33.1024 43.4647 28.4123 44.1846C19.115 45.5929 8.99662 42.6311 3.77292 34.5155L3.77274 34.5153C1.4304 30.8813 0.197033 26.3815 0.563828 22.0528C1.05542 16.5691 4.15074 13.0033 6.80959 9.94032C6.83381 9.91242 6.858 9.88456 6.88215 9.85674L6.88376 9.85487C9.36001 6.97331 13.1743 2.59056 19.7642 1.06696Z" fill="#EDF0F1" stroke="#BFC8CE"/>
<mask id="mask0" mask-type="alpha" maskUnits="userSpaceOnUse" x="0" y="0" width="46" height="46">
<path d="M19.7642 1.06696L19.7642 1.06698L19.7683 1.06599C21.0864 0.749479 25.7915 -0.274254 31.0133 1.58951C40.5285 5.0258 45.5527 15.8868 45.4996 24.8367L45.4995 24.8403C45.4726 27.2927 45.4085 33.13 41.2023 38.0181L41.2014 38.0192C38.1082 41.6343 33.1024 43.4647 28.4123 44.1846C19.115 45.5929 8.99662 42.6311 3.77292 34.5155L3.77274 34.5153C1.4304 30.8813 0.197033 26.3815 0.563828 22.0528C1.05542 16.5691 4.15074 13.0033 6.80959 9.94032C6.83381 9.91242 6.858 9.88456 6.88215 9.85674L6.88376 9.85487C9.36001 6.97331 13.1743 2.59056 19.7642 1.06696Z" fill="#EDF0F1" stroke="#BFC8CE"/>
</mask>
<g mask="url(#mask0)">
<path d="M21.8261 27.2833C18.445 28.0473 16.4918 30.247 15.2526 31.6564C13.919 33.158 10.7562 41.2075 10.5002 44C10.3117 46.1734 10.4777 43.1808 11.6765 44.9985C14.3571 49.0687 21.5297 49.5307 26.2444 48.8326C28.6151 48.477 34.188 47.5681 35.7909 45.7372C37.9597 43.2741 36.9868 45.1986 37.0002 44C37.0272 39.5611 32.4811 29.2723 27.5914 27.5468C24.9108 26.6116 22.4996 27.1253 21.8261 27.2833Z" fill="#04293E"/>
</g>
<path d="M12.0343 17.5695L12.0343 17.5695L12.0339 17.5744C11.8399 19.7744 12.4897 22.0225 13.6995 23.8276C16.4286 27.9051 21.5999 29.2668 26.1496 28.6039L26.1515 28.6036C28.4109 28.2701 31.0369 27.4 32.7289 25.4992C34.9537 23.0121 34.9869 20.063 34.9994 18.9483L34.9998 18.9162L34.9998 18.911C35.0262 14.6312 32.5477 9.27722 27.5634 7.54654L27.56 7.54539C24.8489 6.61469 22.4266 7.1233 21.7503 7.27927C18.3311 8.04086 16.3652 10.2397 15.2255 11.5151C15.1978 11.5458 15.1698 11.5767 15.1416 11.608C13.9489 12.9279 12.2963 14.7568 12.0343 17.5695Z" fill="#009FB5" stroke="#EDF0F1" stroke-width="2"/>
</svg>
